<svg width="50" height="50" viewBox="0 0 50 50" fill="none" xmlns="http://www.w3.org/2000/svg">
<rect width="50" height="50" rx="8" transform="matrix(-1 0 0 1 50 0)" fill="#3B5998"/>
<path d="M32 14.6181C32 14.4561 31.933 14.3007 31.8136 14.1862C31.6943 14.0716 31.5324 14.0072 31.3636 14.0072H28.1818C26.5796 13.9306 25.0109 14.4659 23.8186 15.4961C22.6262 16.5263 21.907 17.9678 21.8182 19.5054V22.8043H18.6364C18.4676 22.8043 18.3057 22.8687 18.1864 22.9833C18.067 23.0978 18 23.2532 18 23.4152V26.592C18 26.754 18.067 26.9094 18.1864 27.024C18.3057 27.1385 18.4676 27.2029 18.6364 27.2029H21.8182V35.3891C21.8182 35.5511 21.8852 35.7065 22.0046 35.8211C22.1239 35.9356 22.2858 36 22.4545 36H26.2727C26.4415 36 26.6034 35.9356 26.7227 35.8211C26.842 35.7065 26.9091 35.5511 26.9091 35.3891V27.2029H30.2436C30.3852 27.2048 30.5233 27.1614 30.6363 27.0796C30.7492 26.9977 30.8305 26.882 30.8673 26.7508L31.7836 23.5741C31.809 23.4838 31.8124 23.3892 31.7936 23.2974C31.7748 23.2057 31.7344 23.1194 31.6753 23.045C31.6163 22.9706 31.5403 22.9103 31.4532 22.8686C31.3661 22.8268 31.2701 22.8049 31.1727 22.8043H26.9091V19.5054C26.9407 19.203 27.0887 18.9227 27.324 18.7194C27.5594 18.5161 27.8652 18.4043 28.1818 18.4058H31.3636C31.5324 18.4058 31.6943 18.3414 31.8136 18.2268C31.933 18.1123 32 17.9569 32 17.7949V14.6181Z" fill="white"/>
</svg>
