<svg width="50" height="50" viewBox="0 0 50 50" fill="none" xmlns="http://www.w3.org/2000/svg">
<rect width="50" height="50" rx="8" transform="matrix(-1 0 0 1 50 0)" fill="#FF0000"/>
<path fill-rule="evenodd" clip-rule="evenodd" d="M32.6693 18.4246C33.5184 18.6533 34.188 19.3227 34.4165 20.172C34.8412 21.7232 34.8249 24.9567 34.8249 24.9567C34.8249 24.9567 34.8249 28.1737 34.4167 29.7251C34.188 30.5742 33.5185 31.2438 32.6693 31.4723C31.1179 31.8807 24.9125 31.8807 24.9125 31.8807C24.9125 31.8807 18.7232 31.8807 17.1556 31.4561C16.3064 31.2274 15.6369 30.5579 15.4082 29.7087C15 28.1737 15 24.9404 15 24.9404C15 24.9404 15 21.7232 15.4082 20.172C15.6368 19.3229 16.3227 18.6369 17.1555 18.4084C18.7069 18 24.9123 18 24.9123 18C24.9123 18 31.1179 18 32.6693 18.4246ZM28.0969 24.9406L22.9366 27.9127V21.9685L28.0969 24.9406Z" fill="white"/>
</svg>
